<svg width="14" height="14" viewBox="0 0 14 14" fill="none" xmlns="http://www.w3.org/2000/svg">
<path d="M12.485 3.54667L8.64499 0.859999C7.59833 0.126666 5.99166 0.166666 4.98499 0.946666L1.64499 3.55333C0.978327 4.07333 0.45166 5.14 0.45166 5.98V10.58C0.45166 12.28 1.83166 13.6667 3.53166 13.6667H10.7183C12.4183 13.6667 13.7983 12.2867 13.7983 10.5867V6.06667C13.7983 5.16667 13.2183 4.06 12.485 3.54667ZM7.62499 11C7.62499 11.2733 7.39833 11.5 7.12499 11.5C6.85166 11.5 6.62499 11.2733 6.62499 11V9C6.62499 8.72667 6.85166 8.5 7.12499 8.5C7.39833 8.5 7.62499 8.72667 7.62499 9V11Z" fill="#112022"/>
</svg>
